<?xml version="1.0" encoding="iso-8859-1"?>
<!-- Generator: Adobe Illustrator 15.1.0, SVG Export Plug-In . SVG Version: 6.00 Build 0)  -->
<!DOCTYPE svg PUBLIC "-//W3C//DTD SVG 1.1//EN" "http://www.w3.org/Graphics/SVG/1.1/DTD/svg11.dtd">
<svg version="1.1" id="Layer_1" xmlns="http://www.w3.org/2000/svg" xmlns:xlink="http://www.w3.org/1999/xlink" x="0px" y="0px"
	 width="30px" height="30px" viewBox="0 0 30 30" style="enable-background:new 0 0 30 30;" xml:space="preserve">
<g>
	<path style="fill:#A85265;" d="M14.998,0c-4.214,0-7.76,1.454-10.64,4.36C1.451,7.267-0.002,10.813-0.002,15
		c0,4.16,1.453,7.693,4.36,10.6c2.933,2.934,6.479,4.4,10.64,4.4c4.133,0,7.666-1.467,10.6-4.4c2.934-2.933,4.4-6.466,4.4-10.6
		c0-4.16-1.467-7.706-4.4-10.64C22.691,1.454,19.158,0,14.998,0L14.998,0z M13.318,15h-3.32v3.32h3.32v8.239
		c-2.507-0.319-4.707-1.426-6.601-3.319C4.451,20.947,3.318,18.2,3.318,15c0-3.253,1.133-6.013,3.399-8.28
		c2.267-2.266,5.026-3.399,8.28-3.399c3.2,0,5.946,1.134,8.24,3.399c2.293,2.268,3.439,5.027,3.439,8.28
		c0,3.2-1.146,5.947-3.439,8.24c-1.894,1.894-4.08,3-6.561,3.319V18.32h3.32V15h-3.32v-2.32c0-0.266,0.101-0.5,0.3-0.699
		c0.2-0.2,0.434-0.301,0.7-0.301h2.32V8.32h-2.32c-1.254,0-2.294,0.46-3.12,1.38s-1.239,2.033-1.239,3.34V15z"/>
</g>
</svg>
