<?xml version="1.0" encoding="iso-8859-1"?>
<!-- Generator: Adobe Illustrator 15.1.0, SVG Export Plug-In . SVG Version: 6.00 Build 0)  -->
<!DOCTYPE svg PUBLIC "-//W3C//DTD SVG 1.1//EN" "http://www.w3.org/Graphics/SVG/1.1/DTD/svg11.dtd">
<svg version="1.1" id="Layer_1" xmlns="http://www.w3.org/2000/svg" xmlns:xlink="http://www.w3.org/1999/xlink" x="0px" y="0px"
	 width="30px" height="30px" viewBox="0 0 30 30" style="enable-background:new 0 0 30 30;" xml:space="preserve">
<g>
	<path style="fill:#A85265;" d="M15.677,16.32c-0.347-0.347-0.52-0.627-0.52-0.84l0.52-0.961c0.373-0.293,0.653-0.532,0.84-0.72
		c0.187-0.187,0.366-0.466,0.54-0.84c0.174-0.373,0.261-0.8,0.261-1.28c0-0.906-0.44-1.8-1.32-2.68h1.16l1.16-0.68h-4
		c-1.387,0-2.547,0.333-3.48,1c-0.88,0.72-1.32,1.613-1.32,2.68c0,0.827,0.301,1.56,0.9,2.2c0.6,0.64,1.406,0.96,2.42,0.96h0.68
		c-0.134,0.134-0.199,0.359-0.199,0.68c0,0.427,0.226,0.867,0.68,1.32c-1.467,0-2.747,0.28-3.84,0.84
		c-0.987,0.587-1.48,1.36-1.48,2.32c0,0.8,0.354,1.474,1.061,2.02c0.706,0.547,1.74,0.82,3.1,0.82c1.573,0,2.826-0.366,3.76-1.101
		c0.934-0.732,1.4-1.593,1.4-2.579c0-0.16-0.014-0.313-0.04-0.461c-0.026-0.146-0.074-0.293-0.14-0.439
		c-0.067-0.146-0.134-0.267-0.2-0.36c-0.067-0.093-0.167-0.213-0.3-0.359c-0.134-0.146-0.234-0.261-0.301-0.341
		c-0.066-0.079-0.18-0.192-0.34-0.34c-0.16-0.146-0.279-0.26-0.359-0.34L15.677,16.32z M11.837,13.52
		c-0.454-0.772-0.68-1.56-0.68-2.359c0.187-0.826,0.359-1.32,0.52-1.48C12.13,9.227,12.57,9,12.997,9c0.773,0,1.386,0.394,1.84,1.18
		c0.453,0.787,0.68,1.62,0.68,2.5c0,0.641-0.173,1.134-0.52,1.48s-0.787,0.52-1.32,0.52C12.903,14.68,12.29,14.294,11.837,13.52z
		 M11.277,21.84c-0.641-0.453-0.96-1.013-0.96-1.68c0-0.16,0.02-0.313,0.06-0.46s0.093-0.273,0.16-0.38
		c0.066-0.106,0.146-0.214,0.24-0.32c0.093-0.106,0.18-0.193,0.26-0.26s0.18-0.141,0.3-0.221c0.12-0.079,0.206-0.133,0.26-0.159
		s0.134-0.066,0.24-0.12l0.16-0.08c0.56-0.213,1.227-0.32,2-0.32h0.48c0.8,0.534,1.366,0.994,1.699,1.38
		c0.333,0.387,0.5,0.82,0.5,1.3c0,0.587-0.246,1.067-0.739,1.44c-0.494,0.374-1.194,0.56-2.101,0.56
		C12.771,22.52,11.917,22.294,11.277,21.84z M19.997,16.68h1.68V15h1.641v-1.68h-1.641V11.68h-1.68v1.641h-1.68V15h1.68V16.68z
		 M29.997,15c0-4.16-1.46-7.7-4.38-10.62S19.157,0,14.997,0s-7.7,1.46-10.62,4.38s-4.38,6.46-4.38,10.62s1.46,7.7,4.38,10.62
		S10.837,30,14.997,30s7.7-1.46,10.62-4.38S29.997,19.16,29.997,15z M26.677,15c0,3.254-1.14,6.014-3.42,8.28
		c-2.279,2.267-5.033,3.399-8.26,3.399s-5.98-1.133-8.26-3.399c-2.28-2.267-3.42-5.026-3.42-8.28c0-3.253,1.14-6.013,3.42-8.28
		c2.279-2.266,5.033-3.399,8.26-3.399s5.98,1.134,8.26,3.399C25.537,8.987,26.677,11.747,26.677,15z"/>
</g>
</svg>
