<?xml version="1.0" encoding="iso-8859-1"?>
<!-- Generator: Adobe Illustrator 15.1.0, SVG Export Plug-In . SVG Version: 6.00 Build 0)  -->
<!DOCTYPE svg PUBLIC "-//W3C//DTD SVG 1.1//EN" "http://www.w3.org/Graphics/SVG/1.1/DTD/svg11.dtd">
<svg version="1.1" id="Layer_1" xmlns="http://www.w3.org/2000/svg" xmlns:xlink="http://www.w3.org/1999/xlink" x="0px" y="0px"
	 width="30px" height="30px" viewBox="0 0 30 30" style="enable-background:new 0 0 30 30;" xml:space="preserve">
<g>
	<path style="fill:#A85265;" d="M11.719,11.84h-2.68v8.68h2.68V11.84z M10.399,10.72c0.96,0,1.44-0.439,1.44-1.319
		c0-0.906-0.48-1.36-1.44-1.36c-0.4,0-0.74,0.134-1.02,0.4c-0.28,0.267-0.42,0.587-0.42,0.96C8.959,10.28,9.439,10.72,10.399,10.72z
		 M15.759,13l-0.16-1.16h-2.32c0.026,0.347,0.04,1.267,0.04,2.76v5.92h2.72V15.48c0-0.533,0.14-0.953,0.42-1.261
		c0.28-0.306,0.646-0.46,1.101-0.46c0.879,0,1.319,0.641,1.319,1.92v4.84h2.72V15.4c0-1.146-0.267-2.066-0.8-2.761
		c-0.534-0.692-1.307-1.04-2.319-1.04C17.279,11.6,16.372,12.067,15.759,13L15.759,13z M29.999,15c0-4.133-1.467-7.666-4.4-10.6
		S19.132,0,14.999,0c-4.134,0-7.667,1.467-10.6,4.4c-2.934,2.934-4.4,6.467-4.4,10.6c0,4.134,1.466,7.667,4.4,10.6
		c2.933,2.934,6.466,4.4,10.6,4.4c4.133,0,7.666-1.467,10.6-4.4C28.532,22.667,29.999,19.134,29.999,15z M26.679,15
		c0,3.227-1.14,5.98-3.42,8.26c-2.279,2.28-5.033,3.42-8.26,3.42c-3.227,0-5.98-1.14-8.26-3.42c-2.28-2.279-3.42-5.033-3.42-8.26
		s1.14-5.98,3.42-8.26c2.28-2.28,5.033-3.42,8.26-3.42c3.227,0,5.98,1.14,8.26,3.42C25.539,9.02,26.679,11.773,26.679,15z"/>
</g>
</svg>
