<?xml version="1.0" encoding="iso-8859-1"?>
<!-- Generator: Adobe Illustrator 15.1.0, SVG Export Plug-In . SVG Version: 6.00 Build 0)  -->
<!DOCTYPE svg PUBLIC "-//W3C//DTD SVG 1.1//EN" "http://www.w3.org/Graphics/SVG/1.1/DTD/svg11.dtd">
<svg version="1.1" id="Layer_1" xmlns="http://www.w3.org/2000/svg" xmlns:xlink="http://www.w3.org/1999/xlink" x="0px" y="0px"
	 width="53.354px" height="51.989px" viewBox="0 0 53.354 51.989" style="enable-background:new 0 0 53.354 51.989;"
	 xml:space="preserve">
<g>
	<path style="fill:#EC7263;" d="M16.952,1.997C9.641,4.339,2.041,10.987,2.991,18.588c0,8.548,8.55,15.199,17.099,18.049
		c-6.648-7.601-11.398-17.099-7.223-27.492C14.828,4.736,16.952,1.997,16.952,1.997z"/>
	<path style="fill:#FCBE7D;" d="M1.158,20.572c-2.916,7.514-0.066,17.015,5.633,20.813c7.6,5.7,18.049,2.851,25.648-3.799
		c-10.449,1.899-21.849,0-27.605-9.394C2.246,23.96,1.158,20.572,1.158,20.572z"/>
	<path style="fill:#A85265;" d="M8.133,44.407c5.309,6.479,14.808,9.328,22.407,6.479c8.55-2.849,10.45-14.249,9.499-23.75
		c-3.8,10.451-12.35,18.051-23.367,18.621C11.607,45.454,8.133,44.407,8.133,44.407z"/>
	<path style="fill:#EC7263;" d="M33.725,50.996c8.215-2.01,16.764-9.61,16.764-18.16c0-5.7-3.799-10.448-8.549-14.248
		c-2.85-1.9-5.7-1.9-8.549-3.802c7.6,7.602,12.349,19.951,5.748,29.559C36.371,48.547,33.725,50.996,33.725,50.996z"/>
	<path style="fill:#A85265;" d="M42.245,5.367c-6.006-4.829-15.505-7.68-22.155-2.93c-7.6,4.751-9.499,15.199-4.749,23.749
		c0.95-10.449,8.55-18.998,18.733-20.819C38.838,4.877,42.245,5.367,42.245,5.367z"/>
</g>
<path style="fill:#FCBE7D;" d="M21.041,14.692c4.348-6.786,13.701-10.088,20.13-7.726c9.086,2.775,12.946,12.896,12.059,22.954
	c-4.629-9.559-12.886-17.645-23.866-16.755C24.417,13.572,21.041,14.692,21.041,14.692z"/>
</svg>
