<?xml version="1.0" encoding="iso-8859-1"?>
<!-- Generator: Adobe Illustrator 15.1.0, SVG Export Plug-In . SVG Version: 6.00 Build 0)  -->
<!DOCTYPE svg PUBLIC "-//W3C//DTD SVG 1.1//EN" "http://www.w3.org/Graphics/SVG/1.1/DTD/svg11.dtd">
<svg version="1.1" id="Layer_1" xmlns="http://www.w3.org/2000/svg" xmlns:xlink="http://www.w3.org/1999/xlink" x="0px" y="0px"
	 width="119.303px" height="61.158px" viewBox="0 0 119.303 61.158" style="enable-background:new 0 0 119.303 61.158;"
	 xml:space="preserve">
<g>
	<path style="fill:#FCBE7D;" d="M0,31.617h8.839v-0.203c-4.012,0-4.25-1.973-4.25-10.846v-6.119l14.992,17.406l0.17-0.068V21.69
		c0-8.873,0.238-10.845,4.25-10.845v-0.238h-8.839v0.238c4.012,0,4.25,1.972,4.25,10.845v3.365L7.038,10.607H0.17v0.238
		c3.298,0,4.08,1.699,4.08,5.133v4.59c0,8.873-0.238,10.846-4.25,10.846V31.617z"/>
	<path style="fill:#FCBE7D;" d="M31.858,31.991c3.74,0,5.644-2.142,6.663-3.773l-0.204-0.136c-0.884,1.461-2.55,3.195-4.998,3.195
		c-3.196,0-4.862-2.855-4.76-7.377h9.995c-0.102-4.25-2.992-6.527-6.697-6.527c-4.216,0-7.377,2.991-7.377,7.275
		C24.48,28.489,27.03,31.991,31.858,31.991z M31.824,17.611c2.516,0,2.754,4.215,2.754,5.982H28.56
		C28.696,20.704,29.716,17.611,31.824,17.611z"/>
	<path style="fill:#FCBE7D;" d="M40.223,37.158h8.805v-0.203c-1.802,0-2.55-0.578-2.55-2.278v-3.875
		c0.714,0.714,1.938,1.189,3.671,1.189c4.386,0,7.003-3.229,7.003-7.31c0-3.875-2.38-7.309-6.153-7.309
		c-2.142,0-3.638,1.121-4.624,2.346v-2.312l-6.153,0.681v0.204c1.836,0,2.38,0.714,2.38,2.413v13.837
		c0,1.699-0.544,2.414-2.38,2.414V37.158z M49.3,18.461c2.652,0,3.74,2.924,3.74,6.425c0,3.264-1.156,6.833-3.706,6.833
		c-1.598,0-2.856-1.224-2.856-3.059v-8.636C47.09,19.174,48.008,18.461,49.3,18.461z"/>
	<path style="fill:#FCBE7D;" d="M64.498,31.991c2.516,0,3.977-1.156,4.861-2.38c0.34,1.395,1.496,2.312,3.229,2.312
		c2.073,0,3.161-1.325,3.943-2.651l-0.204-0.136c-0.373,0.68-1.224,1.972-2.277,1.972c-0.51,0-0.952-0.272-0.952-1.189v-7.479
		c0-3.706-3.468-5.065-6.63-5.065c-3.604,0-6.085,1.733-6.085,3.739c0,1.088,0.748,2.176,2.04,2.176c1.189,0,2.074-0.884,2.074-2.04
		c0-0.85-0.545-1.666-1.36-1.971c0.578-0.885,1.496-1.701,3.161-1.701c2.312,0,2.924,1.598,2.924,3.774v3.434
		c-1.053-0.341-2.481-0.578-3.807-0.578c-3.094,0-5.645,1.19-5.645,3.909C59.771,30.495,61.676,31.991,64.498,31.991z
		 M66.197,31.175c-1.563,0-2.414-1.257-2.414-3.195c0-2.277,1.123-3.365,3.026-3.365c0.85,0,1.7,0.237,2.413,0.441v4.317
		C68.441,30.394,67.422,31.175,66.197,31.175z"/>
	<path style="fill:#FCBE7D;" d="M76.363,31.617h8.636v-0.203c-1.836,0-2.38-0.646-2.38-2.347V14.007
		c0.885,0.136,1.802,0.238,2.72,0.238c3.842,0,6.357-1.666,6.357-4.42c0-2.107-1.428-4.045-5.27-4.045
		c-4.046,0-6.833,2.277-7.513,6.731C70.414,9.01,62.051,0,53.382,0c-4.998,0-7.615,2.958-7.615,6.018
		c0,2.958,2.516,5.168,6.493,6.018c-1.904-1.563-2.686-3.535-2.686-5.541c0-3.06,1.87-5.542,5.746-5.542
		c7.173,0,15.094,8.533,23.525,11.899c-0.068,0.407-0.102,0.884-0.102,1.359v14.856c0,1.7-0.545,2.347-2.381,2.347V31.617z
		 M82.619,13.701v-0.714c0-3.502,0.578-6.867,4.386-6.867c2.516,0,4.352,1.462,4.352,3.671c0,2.55-2.38,4.182-6.052,4.182
		C84.387,13.973,83.504,13.871,82.619,13.701z"/>
	<path style="fill:#FCBE7D;" d="M9.111,56.025c5.133,0,8.159-2.447,8.159-6.222c0-7.649-12.239-5.882-12.239-11.593
		c0-2.006,1.53-3.773,4.556-3.773c2.312,0,3.706,1.054,4.453,2.107c-1.054,0.272-1.768,1.19-1.768,2.346
		c0,1.292,0.986,2.312,2.278,2.312c1.326,0,2.278-1.021,2.278-2.448c0-2.448-2.924-4.556-7.412-4.556
		c-4.827,0-7.649,2.38-7.649,5.983c0,7.445,12.171,5.542,12.171,11.524c0,2.244-1.7,4.08-5.1,4.08c-2.788,0-4.419-1.224-5.202-2.312
		c1.088-0.204,1.904-1.19,1.904-2.38c0-1.326-1.02-2.38-2.312-2.38c-1.326,0-2.346,1.122-2.346,2.517
		C0.884,53.646,4.046,56.025,9.111,56.025z"/>
	<path style="fill:#FCBE7D;" d="M25.703,55.991c2.38,0,4.318-1.632,5.542-2.89v2.516h6.188v-0.203c-1.836,0-2.38-0.715-2.38-2.414
		V41.406l-6.085,0.681v0.204c1.632,0,2.21,0.714,2.21,2.413v8.126c-0.884,0.85-1.972,1.768-3.4,1.768
		c-1.428,0-2.244-0.918-2.244-2.788V41.406l-6.255,0.681v0.204c1.836,0,2.38,0.714,2.38,2.413v6.8
		C21.658,54.699,23.527,55.991,25.703,55.991z"/>
	<path style="fill:#FCBE7D;" d="M38.317,61.158h8.805v-0.203c-1.802,0-2.55-0.578-2.55-2.278v-3.875
		c0.714,0.714,1.938,1.189,3.672,1.189c4.385,0,7.003-3.229,7.003-7.31c0-3.875-2.38-7.309-6.153-7.309
		c-2.142,0-3.638,1.121-4.624,2.346v-2.312l-6.153,0.681v0.204c1.836,0,2.38,0.714,2.38,2.413v13.837
		c0,1.699-0.544,2.414-2.38,2.414V61.158z M47.395,42.461c2.652,0,3.74,2.924,3.74,6.425c0,3.264-1.156,6.833-3.706,6.833
		c-1.598,0-2.856-1.224-2.856-3.059v-8.636C45.185,43.174,46.103,42.461,47.395,42.461z"/>
	<path style="fill:#FCBE7D;" d="M57.017,61.158h8.805v-0.203c-1.802,0-2.55-0.578-2.55-2.278v-3.875
		c0.714,0.714,1.938,1.189,3.672,1.189c4.386,0,7.003-3.229,7.003-7.31c0-3.875-2.379-7.309-6.153-7.309
		c-2.142,0-3.638,1.121-4.624,2.346v-2.312l-6.153,0.681v0.204c1.836,0,2.38,0.714,2.38,2.413v13.837
		c0,1.699-0.544,2.414-2.38,2.414V61.158z M66.094,42.461c2.652,0,3.74,2.924,3.74,6.425c0,3.264-1.156,6.833-3.705,6.833
		c-1.599,0-2.856-1.224-2.856-3.059v-8.636C63.885,43.174,64.803,42.461,66.094,42.461z"/>
	<path style="fill:#FCBE7D;" d="M84.284,55.991c4.046,0,7.751-2.651,7.751-7.31c0-4.657-3.705-7.309-7.751-7.309
		s-7.751,2.651-7.751,7.309C76.533,53.34,80.238,55.991,84.284,55.991z M84.284,55.719c-2.584,0-3.569-2.753-3.569-7.037
		c0-4.249,0.985-7.037,3.569-7.037c2.583,0,3.604,2.788,3.604,7.037C87.888,52.966,86.867,55.719,84.284,55.719z"/>
	<path style="fill:#FCBE7D;" d="M94.008,55.617h8.806v-0.203c-1.836,0-2.55-0.612-2.55-2.414v-6.936
		c0.477-1.122,1.326-2.21,2.447-2.618c-0.17,1.394,0.885,2.482,2.176,2.482c1.19,0,2.176-0.986,2.176-2.244
		c0-1.155-0.781-2.312-2.346-2.312c-2.107,0-3.739,2.176-4.521,4.453v-4.42l-6.188,0.681v0.204c1.836,0,2.381,0.714,2.381,2.413V53
		c0,1.699-0.545,2.414-2.381,2.414V55.617z"/>
	<path style="fill:#FCBE7D;" d="M114.306,55.957c2.448,0,3.943-1.495,4.997-2.821L119.133,53c-0.714,0.918-1.733,1.938-3.06,1.938
		c-1.292,0-1.87-0.952-1.87-2.618V42.154h4.216v-0.407h-4.216V37.43l-3.875,0.713v3.604h-2.414v0.407h2.414v9.655
		C110.328,54.563,111.96,55.957,114.306,55.957z"/>
</g>
</svg>
