<?xml version="1.0" encoding="iso-8859-1"?>
<!-- Generator: Adobe Illustrator 15.1.0, SVG Export Plug-In . SVG Version: 6.00 Build 0)  -->
<!DOCTYPE svg PUBLIC "-//W3C//DTD SVG 1.1//EN" "http://www.w3.org/Graphics/SVG/1.1/DTD/svg11.dtd">
<svg version="1.1" id="Layer_1" xmlns="http://www.w3.org/2000/svg" xmlns:xlink="http://www.w3.org/1999/xlink" x="0px" y="0px"
	 width="64.959px" height="111.389px" viewBox="0 0 64.959 111.389" style="enable-background:new 0 0 64.959 111.389;"
	 xml:space="preserve">
<g>
	<path style="fill:#FCBE7D;" d="M64.959,55.694c0-0.894-0.447-1.897-1.116-2.567L11.831,1.116C11.161,0.446,10.157,0,9.265,0
		C8.371,0,7.367,0.446,6.697,1.116l-5.581,5.58C0.446,7.366,0,8.371,0,9.264s0.446,1.897,1.116,2.567l43.863,43.863L1.116,99.558
		C0.446,100.228,0,101.231,0,102.125c0,1.004,0.446,1.897,1.116,2.566l5.581,5.581c0.67,0.67,1.674,1.116,2.567,1.116
		c0.893,0,1.896-0.446,2.566-1.116l52.012-52.011C64.512,57.592,64.959,56.587,64.959,55.694z"/>
</g>
</svg>
