<?xml version="1.0" encoding="iso-8859-1"?>
<!-- Generator: Adobe Illustrator 15.1.0, SVG Export Plug-In . SVG Version: 6.00 Build 0)  -->
<!DOCTYPE svg PUBLIC "-//W3C//DTD SVG 1.1//EN" "http://www.w3.org/Graphics/SVG/1.1/DTD/svg11.dtd">
<svg version="1.1" id="Layer_1" xmlns="http://www.w3.org/2000/svg" xmlns:xlink="http://www.w3.org/1999/xlink" x="0px" y="0px"
	 width="64.959px" height="111.389px" viewBox="0 0 64.959 111.389" style="enable-background:new 0 0 64.959 111.389;"
	 xml:space="preserve">
<g>
	<path style="fill:#FCBE7D;" d="M1.116,58.262l52.012,52.011c0.67,0.67,1.674,1.116,2.566,1.116c0.894,0,1.897-0.446,2.567-1.116
		l5.581-5.581c0.67-0.669,1.116-1.562,1.116-2.566c0-0.894-0.446-1.897-1.116-2.567L19.979,55.694l43.863-43.863
		c0.67-0.67,1.116-1.675,1.116-2.567s-0.446-1.897-1.116-2.567l-5.581-5.58C57.592,0.446,56.588,0,55.694,0
		c-0.893,0-1.896,0.446-2.566,1.116L1.116,53.127C0.447,53.797,0,54.801,0,55.694C0,56.587,0.447,57.592,1.116,58.262z"/>
</g>
</svg>
