<?xml version="1.0" encoding="iso-8859-1"?>
<!-- Generator: Adobe Illustrator 15.1.0, SVG Export Plug-In . SVG Version: 6.00 Build 0)  -->
<!DOCTYPE svg PUBLIC "-//W3C//DTD SVG 1.1//EN" "http://www.w3.org/Graphics/SVG/1.1/DTD/svg11.dtd">
<svg version="1.1" id="Layer_1" xmlns="http://www.w3.org/2000/svg" xmlns:xlink="http://www.w3.org/1999/xlink" x="0px" y="0px"
	 width="30px" height="30px" viewBox="0 0 30 30" style="enable-background:new 0 0 30 30;" xml:space="preserve">
<g>
	<path style="fill:#A85265;" d="M15.28,13.76c-2.293-0.08-4.173-1.026-5.64-2.84c-0.267,0.48-0.4,0.934-0.4,1.36
		c0,0.934,0.414,1.693,1.24,2.279C9.946,14.507,9.533,14.4,9.24,14.24c0,0.693,0.207,1.287,0.62,1.779
		c0.413,0.494,0.926,0.808,1.54,0.94c-0.16,0.054-0.4,0.08-0.72,0.08c-0.213,0-0.374-0.026-0.479-0.08
		c0.16,0.534,0.473,0.98,0.94,1.34c0.466,0.36,1.006,0.554,1.62,0.58c-1.014,0.773-2.146,1.16-3.4,1.16
		c-0.374,0-0.6-0.013-0.68-0.04c1.28,0.827,2.68,1.24,4.2,1.24c1.6,0,3-0.4,4.2-1.2c2.373-1.546,3.56-3.733,3.56-6.56v-0.36
		c0.586-0.453,1.054-0.934,1.4-1.44c-0.4,0.214-0.92,0.36-1.561,0.44c0.561-0.347,0.947-0.84,1.16-1.48
		c-0.56,0.294-1.133,0.507-1.72,0.641c-0.534-0.561-1.187-0.84-1.96-0.84s-1.427,0.267-1.96,0.8c-0.534,0.533-0.8,1.174-0.8,1.92
		C15.2,13.347,15.226,13.547,15.28,13.76L15.28,13.76z M25.601,25.6C28.533,22.667,30,19.134,30,15c0-4.16-1.467-7.706-4.399-10.64
		C22.693,1.454,19.16,0,15,0C10.786,0,7.24,1.454,4.36,4.36C1.453,7.267,0,10.813,0,15c0,4.16,1.453,7.693,4.36,10.6
		C7.293,28.533,10.84,30,15,30C19.134,30,22.666,28.533,25.601,25.6z M23.239,6.72c2.294,2.268,3.44,5.027,3.44,8.28
		c0,3.2-1.146,5.947-3.44,8.24C20.946,25.534,18.2,26.68,15,26.68c-3.254,0-6.014-1.146-8.28-3.439c-2.267-2.293-3.4-5.04-3.4-8.24
		c0-3.253,1.133-6.013,3.4-8.28C8.986,4.454,11.746,3.32,15,3.32C18.2,3.32,20.946,4.454,23.239,6.72z"/>
</g>
</svg>
